<svg width="512" height="512" viewBox="0 0 512 512" fill="none" xmlns="http://www.w3.org/2000/svg">
  <defs>
    <linearGradient id="bg" x1="0" y1="0" x2="1" y2="1">
      <stop offset="0%" stop-color="#0B0F1A"/>
      <stop offset="60%" stop-color="#101828"/>
      <stop offset="100%" stop-color="#1D273B"/>
    </linearGradient>
    <linearGradient id="accent" x1="0" y1="0" x2="1" y2="1">
      <stop offset="0%" stop-color="#6AE0FF"/>
      <stop offset="100%" stop-color="#7C5CFF"/>
    </linearGradient>
  </defs>
  <rect x="32" y="32" width="448" height="448" rx="104" fill="url(#bg)"/>
  <rect x="56" y="56" width="400" height="400" rx="92" stroke="#2A3550" stroke-width="2"/>

  <g opacity="0.65">
    <rect x="96" y="120" width="120" height="120" rx="24" stroke="#3B4A6A" stroke-width="2"/>
    <rect x="296" y="120" width="120" height="120" rx="24" stroke="#3B4A6A" stroke-width="2"/>
    <rect x="96" y="304" width="120" height="120" rx="24" stroke="#3B4A6A" stroke-width="2"/>
    <rect x="296" y="304" width="120" height="120" rx="24" stroke="#3B4A6A" stroke-width="2"/>
  </g>

  <rect x="176" y="176" width="160" height="160" rx="32" fill="#0B1220" stroke="url(#accent)" stroke-width="3"/>
  <path d="M208 256H304" stroke="url(#accent)" stroke-width="14" stroke-linecap="round"/>
  <path d="M256 208V304" stroke="url(#accent)" stroke-width="14" stroke-linecap="round"/>

  <path d="M144 256H112" stroke="#5B6C8C" stroke-width="8" stroke-linecap="round"/>
  <path d="M400 256H368" stroke="#5B6C8C" stroke-width="8" stroke-linecap="round"/>
  <path d="M256 144V112" stroke="#5B6C8C" stroke-width="8" stroke-linecap="round"/>
  <path d="M256 400V368" stroke="#5B6C8C" stroke-width="8" stroke-linecap="round"/>

  <circle cx="256" cy="256" r="14" fill="url(#accent)"/>
</svg>
